<svg width="650" height="950" viewBox="0 0 650 950" xmlns="http://www.w3.org/2000/svg">
  <defs>
    <filter id="shadow-dark">
      <feDropShadow dx="0" dy="2" stdDeviation="4" flood-opacity="0.25"/>
    </filter>
  </defs>
  
  <!-- Phase 0 -->
  <rect x="25" y="30" width="600" height="120" rx="12" fill="#3B82F6" filter="url(#shadow-dark)"/>
  <text x="325" y="75" text-anchor="middle" font-family="Inter, system-ui, sans-serif" font-weight="700" font-size="20" fill="#F8FAFC">Phase 0 – Self-Assessment</text>
  <text x="325" y="105" text-anchor="middle" font-family="Inter, system-ui, sans-serif" font-weight="600" font-size="16" fill="#F8FAFC">Verify capabilities and constraints</text>
  
  <path d="M 325 155 L 325 185" stroke="#64748B" stroke-width="3" fill="none"/>
  <polygon points="325,185 321,178 329,178" fill="#64748B"/>
  
  <!-- Phase 0.5 -->
  <rect x="25" y="190" width="600" height="120" rx="12" fill="#3B82F6" filter="url(#shadow-dark)"/>
  <text x="325" y="235" text-anchor="middle" font-family="Inter, system-ui, sans-serif" font-weight="700" font-size="20" fill="#F8FAFC">Phase 0.5 – User Calibration</text>
  <text x="325" y="265" text-anchor="middle" font-family="Inter, system-ui, sans-serif" font-weight="600" font-size="16" fill="#F8FAFC">Match depth and tone to user preference</text>
  
  <path d="M 325 315 L 325 345" stroke="#64748B" stroke-width="3" fill="none"/>
  <polygon points="325,345 321,338 329,338" fill="#64748B"/>
  
  <!-- Phase 1 -->
  <rect x="25" y="350" width="600" height="120" rx="12" fill="#3B82F6" filter="url(#shadow-dark)"/>
  <text x="325" y="395" text-anchor="middle" font-family="Inter, system-ui, sans-serif" font-weight="700" font-size="20" fill="#F8FAFC">Phase 1 – Task Profiling</text>
  <text x="325" y="425" text-anchor="middle" font-family="Inter, system-ui, sans-serif" font-weight="600" font-size="16" fill="#F8FAFC">Define goals, success criteria, and context</text>
  
  <path d="M 325 475 L 325 505" stroke="#64748B" stroke-width="3" fill="none"/>
  <polygon points="325,505 321,498 329,498" fill="#64748B"/>
  
  <!-- Phase 2 -->
  <rect x="25" y="510" width="600" height="120" rx="12" fill="#3B82F6" filter="url(#shadow-dark)"/>
  <text x="325" y="555" text-anchor="middle" font-family="Inter, system-ui, sans-serif" font-weight="700" font-size="20" fill="#F8FAFC">Phase 2 – System Identification</text>
  <text x="325" y="585" text-anchor="middle" font-family="Inter, system-ui, sans-serif" font-weight="600" font-size="16" fill="#F8FAFC">Map tools and knowledge access</text>
  
  <path d="M 325 635 L 325 665" stroke="#64748B" stroke-width="3" fill="none"/>
  <polygon points="325,665 321,658 329,658" fill="#64748B"/>
  
  <!-- Phase 3 -->
  <rect x="25" y="670" width="600" height="120" rx="12" fill="#3B82F6" filter="url(#shadow-dark)"/>
  <text x="325" y="715" text-anchor="middle" font-family="Inter, system-ui, sans-serif" font-weight="700" font-size="20" fill="#F8FAFC">Phase 3 – Method Discovery</text>
  <text x="325" y="745" text-anchor="middle" font-family="Inter, system-ui, sans-serif" font-weight="600" font-size="16" fill="#F8FAFC">Select optimal reasoning strategy</text>
  
  <path d="M 325 795 L 325 825" stroke="#64748B" stroke-width="3" fill="none"/>
  <polygon points="325,825 321,818 329,818" fill="#64748B"/>
  
  <!-- Phase 4 -->
  <rect x="25" y="830" width="600" height="120" rx="12" fill="#3B82F6" filter="url(#shadow-dark)"/>
  <text x="325" y="875" text-anchor="middle" font-family="Inter, system-ui, sans-serif" font-weight="700" font-size="20" fill="#F8FAFC">Phase 4 – Prompt Assembly</text>
  <text x="325" y="905" text-anchor="middle" font-family="Inter, system-ui, sans-serif" font-weight="600" font-size="16" fill="#F8FAFC">Validate and deliver the adaptive prompt</text>
</svg>
